HIERARCHY
ROOT Hips
{
	OFFSET 0.000000 71.427986 0.000000
	CHANNELS 6 Xposition Yposition Zposition Xrotation Yrotation Zrotation
	JOINT Pelvis
	{
		OFFSET 0.000000 0.000000 0.000000
		CHANNELS 3 Xrotation Yrotation Zrotation
		JOINT LeftUpLeg
		{
			OFFSET 6.797100 -2.508499 -1.318700
			CHANNELS 3 Xrotation Yrotation Zrotation
			JOINT LeftLeg
			{
				OFFSET 0.069008 -29.241863 0.690200
				CHANNELS 3 Xrotation Yrotation Zrotation
				JOINT LeftFoot
				{
					OFFSET -0.069008 -29.568123 -0.266800
					CHANNELS 3 Xrotation Yrotation Zrotation
					JOINT LeftToeBase
					{
						OFFSET 3.145500 -8.631000 16.059900
						CHANNELS 3 Xrotation Yrotation Zrotation
						End Site
						{
							OFFSET 0.000000 18.501587 0.000000
						}
					}
				}
			}
			JOINT Left_ShortSleeve
			{
				OFFSET 0.265923 -10.480953 1.153800
				CHANNELS 3 Xrotation Yrotation Zrotation
				End Site
				{
					OFFSET 1.725763 19.823879 0.000000
				}
			}
		}
		JOINT RightUpLeg
		{
			OFFSET -6.797100 -2.508499 -1.318700
			CHANNELS 3 Xrotation Yrotation Zrotation
			JOINT RightLeg
			{
				OFFSET -0.082453 -29.241932 0.688000
				CHANNELS 3 Xrotation Yrotation Zrotation
				JOINT RightFoot
				{
					OFFSET 0.082453 -29.568058 -0.264600
					CHANNELS 3 Xrotation Yrotation Zrotation
					JOINT RightToeBase
					{
						OFFSET -3.115300 -8.682800 16.113400
						CHANNELS 3 Xrotation Yrotation Zrotation
						End Site
						{
							OFFSET 0.000000 18.567114 0.000000
						}
					}
				}
			}
			JOINT Right_ShortSleeve
			{
				OFFSET -0.265923 -10.480953 1.153800
				CHANNELS 3 Xrotation Yrotation Zrotation
				End Site
				{
					OFFSET -1.725766 19.823910 0.000000
				}
			}
		}
	}
	JOINT Spine
	{
		OFFSET 0.000000 13.368103 0.470500
		CHANNELS 3 Xrotation Yrotation Zrotation
		JOINT Spine1
		{
			OFFSET 0.147000 13.837402 0.538800
			CHANNELS 3 Xrotation Yrotation Zrotation
			JOINT Spine2
			{
				OFFSET 0.168000 16.242897 -1.435500
				CHANNELS 3 Xrotation Yrotation Zrotation
				JOINT Neck
				{
					OFFSET 0.217200 18.631500 -1.679100
					CHANNELS 3 Xrotation Yrotation Zrotation
					JOINT Head
					{
						OFFSET 0.000000 6.599396 1.385900
						CHANNELS 3 Xrotation Yrotation Zrotation
						JOINT Hat
						{
							OFFSET -0.532200 27.220596 -10.096100
							CHANNELS 3 Xrotation Yrotation Zrotation
							End Site
							{
								OFFSET 0.000000 22.029861 0.000000
							}
						}
						JOINT HairD
						{
							OFFSET -10.777400 17.437393 -1.325900
							CHANNELS 3 Xrotation Yrotation Zrotation
							JOINT HairD1
							{
								OFFSET -3.290299 -11.051193 1.062200
								CHANNELS 3 Xrotation Yrotation Zrotation
								End Site
								{
									OFFSET 0.000000 11.579437 0.000000
								}
							}
						}
						JOINT HairB
						{
							OFFSET -10.777400 17.437393 1.467900
							CHANNELS 3 Xrotation Yrotation Zrotation
							JOINT HairB1
							{
								OFFSET -1.561200 -12.956299 3.590200
								CHANNELS 3 Xrotation Yrotation Zrotation
								End Site
								{
									OFFSET 0.000000 13.534866 0.000000
								}
							}
						}
						JOINT HairA
						{
							OFFSET 9.713100 17.437393 1.467900
							CHANNELS 3 Xrotation Yrotation Zrotation
							JOINT HairA1
							{
								OFFSET 1.561200 -12.956299 3.590200
								CHANNELS 3 Xrotation Yrotation Zrotation
								End Site
								{
									OFFSET 0.000000 13.534866 0.000000
								}
							}
						}
						JOINT HairC
						{
							OFFSET 9.713100 17.437393 -1.325900
							CHANNELS 3 Xrotation Yrotation Zrotation
							JOINT HairC1
							{
								OFFSET 3.290300 -11.051193 1.062200
								CHANNELS 3 Xrotation Yrotation Zrotation
								End Site
								{
									OFFSET 0.000000 11.579437 0.000000
								}
							}
						}
					}
				}
				JOINT LeftShoulder
				{
					OFFSET 5.101800 15.108002 -2.763700
					CHANNELS 3 Xrotation Yrotation Zrotation
					JOINT LeftArm
					{
						OFFSET 9.825497 2.506317 -1.597400
						CHANNELS 3 Xrotation Yrotation Zrotation
						JOINT LeftForeArm
						{
							OFFSET 21.966244 0.000000 0.000000
							CHANNELS 3 Xrotation Yrotation Zrotation
							JOINT LeftHand
							{
								OFFSET 33.879036 0.000000 0.000000
								CHANNELS 3 Xrotation Yrotation Zrotation
								JOINT LeftHandThumb1
								{
									OFFSET 6.715286 -2.359680 3.363841
									CHANNELS 3 Xrotation Yrotation Zrotation
									JOINT LeftHandThumb2
									{
										OFFSET 2.507072 -1.447464 1.447461
										CHANNELS 3 Xrotation Yrotation Zrotation
										JOINT LeftHandThumb3
										{
											OFFSET 2.898338 -1.673355 1.673357
											CHANNELS 3 Xrotation Yrotation Zrotation
											End Site
											{
												OFFSET -0.295959 3.727692 -0.131651
											}
										}
									}
								}
								JOINT LeftHandIndex1
								{
									OFFSET 14.190811 -0.254547 3.840278
									CHANNELS 3 Xrotation Yrotation Zrotation
									JOINT LeftHandIndex2
									{
										OFFSET 3.551727 0.000000 -0.000000
										CHANNELS 3 Xrotation Yrotation Zrotation
										JOINT LeftHandIndex3
										{
											OFFSET 2.894196 0.000000 0.000000
											CHANNELS 3 Xrotation Yrotation Zrotation
											End Site
											{
												OFFSET -1.000603 2.690872 0.366626
											}
										}
									}
								}
								JOINT LeftHandMiddle1
								{
									OFFSET 13.776489 0.000000 0.000000
									CHANNELS 3 Xrotation Yrotation Zrotation
									JOINT LeftHandMiddle2
									{
										OFFSET 3.438232 0.000000 0.000000
										CHANNELS 3 Xrotation Yrotation Zrotation
										JOINT LeftHandMiddle3
										{
											OFFSET 3.691551 0.000000 0.000000
											CHANNELS 3 Xrotation Yrotation Zrotation
											End Site
											{
												OFFSET -1.082298 3.499527 0.457670
											}
										}
									}
								}
								JOINT LeftHandRing1
								{
									OFFSET 13.966164 -0.268127 -3.067488
									CHANNELS 3 Xrotation Yrotation Zrotation
									JOINT LeftHandRing2
									{
										OFFSET 3.162567 0.000000 0.000000
										CHANNELS 3 Xrotation Yrotation Zrotation
										JOINT LeftHandRing3
										{
											OFFSET 3.324348 0.000000 0.000000
											CHANNELS 3 Xrotation Yrotation Zrotation
											End Site
											{
												OFFSET -0.861900 3.184998 0.405154
											}
										}
									}
								}
								JOINT LeftHandPinky1
								{
									OFFSET 13.131393 -0.168503 -5.746925
									CHANNELS 3 Xrotation Yrotation Zrotation
									JOINT LeftHandPinky2
									{
										OFFSET 2.849182 0.000000 0.000000
										CHANNELS 3 Xrotation Yrotation Zrotation
										JOINT LeftHandPinky3
										{
											OFFSET 2.805038 0.000000 0.000000
											CHANNELS 3 Xrotation Yrotation Zrotation
											End Site
											{
												OFFSET -0.882500 2.642609 0.325652
											}
										}
									}
								}
							}
							JOINT Left_Sleeve
							{
								OFFSET 6.592125 -0.646545 0.805568
								CHANNELS 3 Xrotation Yrotation Zrotation
								End Site
								{
									OFFSET -0.000179 20.275787 -0.000000
								}
							}
						}
					}
				}
				JOINT RightShoulder
				{
					OFFSET -5.731700 15.108002 -2.763700
					CHANNELS 3 Xrotation Yrotation Zrotation
					JOINT RightArm
					{
						OFFSET -9.825497 2.506317 -1.597400
						CHANNELS 3 Xrotation Yrotation Zrotation
						JOINT RightForeArm
						{
							OFFSET -21.966242 0.000000 0.000000
							CHANNELS 3 Xrotation Yrotation Zrotation
							JOINT RightHand
							{
								OFFSET -33.879032 0.000000 0.000000
								CHANNELS 3 Xrotation Yrotation Zrotation
								JOINT RightHandThumb1
								{
									OFFSET -6.715286 -2.359680 3.363841
									CHANNELS 3 Xrotation Yrotation Zrotation
									JOINT RightHandThumb2
									{
										OFFSET -2.507072 -1.447464 1.447461
										CHANNELS 3 Xrotation Yrotation Zrotation
										JOINT RightHandThumb3
										{
											OFFSET -2.898338 -1.673355 1.673357
											CHANNELS 3 Xrotation Yrotation Zrotation
											End Site
											{
												OFFSET 0.295959 3.727692 -0.131651
											}
										}
									}
								}
								JOINT RightHandIndex1
								{
									OFFSET -14.190811 -0.254547 3.840278
									CHANNELS 3 Xrotation Yrotation Zrotation
									JOINT RightHandIndex2
									{
										OFFSET -3.551727 0.000000 -0.000000
										CHANNELS 3 Xrotation Yrotation Zrotation
										JOINT RightHandIndex3
										{
											OFFSET -2.894196 0.000000 0.000000
											CHANNELS 3 Xrotation Yrotation Zrotation
											End Site
											{
												OFFSET 1.000603 2.690872 0.366626
											}
										}
									}
								}
								JOINT RightHandMiddle1
								{
									OFFSET -13.776489 0.000000 0.000000
									CHANNELS 3 Xrotation Yrotation Zrotation
									JOINT RightHandMiddle2
									{
										OFFSET -3.438232 0.000000 0.000000
										CHANNELS 3 Xrotation Yrotation Zrotation
										JOINT RightHandMiddle3
										{
											OFFSET -3.691551 0.000000 0.000000
											CHANNELS 3 Xrotation Yrotation Zrotation
											End Site
											{
												OFFSET 1.082298 3.499527 0.457670
											}
										}
									}
								}
								JOINT RightHandRing1
								{
									OFFSET -13.966164 -0.268127 -3.067488
									CHANNELS 3 Xrotation Yrotation Zrotation
									JOINT RightHandRing2
									{
										OFFSET -3.162567 0.000000 0.000000
										CHANNELS 3 Xrotation Yrotation Zrotation
										JOINT RightHandRing3
										{
											OFFSET -3.324348 0.000000 0.000000
											CHANNELS 3 Xrotation Yrotation Zrotation
											End Site
											{
												OFFSET 0.861900 3.184998 0.405154
											}
										}
									}
								}
								JOINT RightHandPinky1
								{
									OFFSET -13.131393 -0.168503 -5.746925
									CHANNELS 3 Xrotation Yrotation Zrotation
									JOINT RightHandPinky2
									{
										OFFSET -2.849182 0.000000 0.000000
										CHANNELS 3 Xrotation Yrotation Zrotation
										JOINT RightHandPinky3
										{
											OFFSET -2.805038 0.000000 0.000000
											CHANNELS 3 Xrotation Yrotation Zrotation
											End Site
											{
												OFFSET 0.882500 2.642609 0.325652
											}
										}
									}
								}
							}
							JOINT Right_Sleeve
							{
								OFFSET -6.592125 -0.646545 0.805568
								CHANNELS 3 Xrotation Yrotation Zrotation
								End Site
								{
									OFFSET 0.000179 20.275787 -0.000000
								}
							}
						}
					}
				}
				JOINT Bind_Right_JacketString
				{
					OFFSET -3.534800 11.969597 7.200700
					CHANNELS 3 Xrotation Yrotation Zrotation
					JOINT Bind_Right_JacketString1
					{
						OFFSET -0.319900 -6.102600 2.794100
						CHANNELS 3 Xrotation Yrotation Zrotation
						End Site
						{
							OFFSET 0.000000 6.719452 0.000000
						}
					}
				}
				JOINT Bind_Left_JacketString
				{
					OFFSET 2.904800 11.969597 7.200700
					CHANNELS 3 Xrotation Yrotation Zrotation
					JOINT Bind_Left_JacketString1
					{
						OFFSET 0.364800 -5.904503 3.186800
						CHANNELS 3 Xrotation Yrotation Zrotation
						End Site
						{
							OFFSET 0.000000 6.719513 0.000000
						}
					}
				}
				JOINT HairE
				{
					OFFSET 5.915200 17.612701 -11.592200
					CHANNELS 3 Xrotation Yrotation Zrotation
					JOINT HairE1
					{
						OFFSET 0.289200 -7.171898 -1.284500
						CHANNELS 3 Xrotation Yrotation Zrotation
						End Site
						{
							OFFSET 0.000000 7.291756 0.000000
						}
					}
				}
				JOINT HairF
				{
					OFFSET -0.864800 17.612701 -11.592200
					CHANNELS 3 Xrotation Yrotation Zrotation
					JOINT HairF1
					{
						OFFSET 0.000000 -14.087097 -2.127501
						CHANNELS 3 Xrotation Yrotation Zrotation
						End Site
						{
							OFFSET 0.000000 14.246841 0.000000
						}
					}
				}
				JOINT HairG
				{
					OFFSET -8.087700 17.612701 -11.592200
					CHANNELS 3 Xrotation Yrotation Zrotation
					JOINT HairG1
					{
						OFFSET -0.293600 -6.081398 -0.910100
						CHANNELS 3 Xrotation Yrotation Zrotation
						End Site
						{
							OFFSET 0.000000 6.156120 0.000000
						}
					}
				}
			}
		}
	}
	JOINT Pouch
	{
		OFFSET 0.000000 4.394501 10.847300
		CHANNELS 3 Xrotation Yrotation Zrotation
		End Site
		{
			OFFSET 0.000000 21.880577 0.000000
		}
	}
	JOINT Bag
	{
		OFFSET -13.229000 4.813004 -0.593300
		CHANNELS 3 Xrotation Yrotation Zrotation
		End Site
		{
			OFFSET 0.000000 21.880577 0.000000
		}
	}
	JOINT OccupyGuyFacialAnim_Joint
	{
		OFFSET 1.000000 -70.206398 -1.655000
		CHANNELS 3 Xrotation Yrotation Zrotation
		End Site
		{
			OFFSET 0.000000 21.880577 0.000000
		}
	}
}
MOTION
Frames: 4
Frame Time: 0.033333
2.772664 70.510925 2.507069 -65.315535 -79.419677 -61.239927 -0.000001 0.000000 -0.000000 -14.988167 6.305680 -1.256534 52.535810 -5.613086 -0.829025 -3.560193 -0.005066 2.095386 0.000003 -0.000000 -0.000000 0.000001 0.000000 -0.000000 -0.093031 -6.364607 -3.678576 22.871189 6.138416 3.412399 -13.423965 0.887142 -5.826608 -0.000000 -0.000000 0.000000 0.000000 -0.000000 0.000000 15.780927 -5.172208 -2.375806 2.828926 -1.297231 -0.520219 2.839532 -1.291916 -0.480962 -10.214225 -0.289806 1.928839 0.642530 3.946488 -0.951179 0.000000 -0.000000 -0.000000 0.000000 -0.000000 -0.000000 0.000000 -0.000000 -0.000000 0.000000 -0.000000 -0.000000 -0.000000 0.000000 -0.000000 0.000000 -0.000000 -0.000000 -0.000000 0.000000 -0.000000 0.000000 -0.000000 -0.000000 0.000000 -0.000000 -0.000000 1.783134 -2.817872 -5.367189 8.347184 -11.449696 -68.845950 -0.000008 -33.539046 -0.000007 -23.608532 5.693680 2.838415 -3.469771 3.607303 7.883183 9.703637 22.223508 2.891157 0.000000 0.000001 -0.000002 0.162353 3.429625 -10.498183 0.209671 1.554710 -15.358577 0.000001 0.000001 -0.000002 0.362563 4.206382 -18.344242 0.474617 2.311787 -23.200245 0.000000 0.000000 0.000004 0.689048 4.991707 -26.673265 0.865741 3.066775 -31.521456 -0.000001 0.000000 -0.000001 0.902512 5.377897 -30.995398 1.110592 3.433627 -35.838153 -0.000001 -0.000000 0.000001 0.000002 0.000001 -0.000001 0.806192 9.462914 15.261725 -2.962845 1.768741 67.176720 -0.000002 20.011874 0.000001 1.317995 -7.062445 -8.055911 -1.986183 -5.435671 -3.761593 8.766485 -20.697674 -3.062061 -0.000001 -0.000001 -0.000000 2.057132 -6.108274 55.293595 5.419327 -4.594509 99.429407 -0.000000 -0.000000 0.000000 2.592844 -6.426552 62.973436 4.946636 -4.648202 93.567335 -0.000000 0.000001 -0.000002 2.854996 -6.549323 66.538576 4.919149 -4.649838 93.228223 0.000002 -0.000001 -0.000001 1.542121 -5.696820 47.168204 2.898947 -4.313215 67.797352 -0.000000 -0.000001 0.000000 -0.000000 0.000001 -0.000001 0.000001 -0.000000 0.000000 0.000001 0.000000 -0.000000 0.000001 -0.000000 0.000000 0.000001 -0.000000 0.000000 0.000001 -0.000000 0.000000 0.000001 0.000000 -0.000000 0.000001 -0.000000 0.000000 0.000001 -0.000000 0.000000 0.000001 -0.000000 0.000000 0.000001 0.000000 -0.000000 -0.000001 0.000000 -0.000000 -0.000001 0.000000 -0.000000 -0.000001 0.000000 -0.000000 
-0.177930 70.852005 3.133940 -69.494463 -84.034966 -65.604110 -0.000000 0.000000 0.000001 -20.530048 5.289517 -1.382535 41.008620 -1.486813 -2.258581 -2.167773 0.155076 -2.567362 0.000001 0.000000 -0.000001 0.000003 0.000000 -0.000001 0.856154 -6.290690 -3.955483 17.963382 6.348774 3.107443 -13.351311 2.952399 -4.845241 0.000000 -0.000000 -0.000000 0.000000 0.000000 -0.000000 12.327559 -3.449183 -3.286537 2.562223 -0.942101 -0.758680 2.573656 -0.936998 -0.722287 -10.114907 -0.220074 1.908261 0.473275 5.316264 -1.227617 0.000000 0.000000 -0.000000 0.000000 0.000000 -0.000000 0.000000 0.000000 0.000000 0.000000 0.000000 0.000000 0.000000 0.000000 -0.000000 0.000000 0.000000 0.000000 0.000000 0.000000 -0.000000 0.000000 0.000000 -0.000000 0.000000 0.000000 -0.000000 1.804333 -2.095471 -5.912345 12.954071 -8.320749 -71.143305 -0.000006 -33.646311 -0.000020 -29.283671 3.861518 1.323719 -3.554829 3.239911 7.768186 9.531835 21.777747 2.832390 -0.000000 0.000001 0.000002 0.151526 3.369512 -9.901521 0.193779 1.495762 -14.762137 0.000003 -0.000001 -0.000002 0.339869 4.136718 -17.627839 0.447946 2.248634 -22.530245 0.000002 0.000001 0.000001 0.643824 4.900042 -25.672834 0.816894 2.985811 -30.596351 -0.000000 -0.000000 -0.000001 0.844708 5.279952 -29.881319 1.051141 3.349933 -34.833603 -0.000000 -0.000001 0.000001 -0.000000 0.000000 0.000000 0.831520 9.408741 14.829411 -2.632974 1.610532 67.386114 -0.000006 21.762885 -0.000006 0.303700 -7.472294 -7.045110 -1.986185 -5.435671 -3.761594 8.766486 -20.697674 -3.062066 0.000001 0.000000 0.000001 2.057126 -6.108271 55.293595 5.419327 -4.594510 99.429407 -0.000001 0.000000 -0.000003 2.592841 -6.426549 62.973436 4.946633 -4.648201 93.567328 0.000001 0.000001 0.000001 2.854989 -6.549324 66.538576 4.919147 -4.649838 93.228216 0.000001 0.000000 0.000001 1.542117 -5.696820 47.168204 2.898944 -4.313215 67.797346 -0.000001 -0.000001 -0.000001 0.000001 0.000000 -0.000000 0.000000 0.000000 -0.000000 0.000000 0.000000 0.000000 0.000000 0.000000 -0.000000 0.000000 0.000000 -0.000000 0.000000 0.000000 -0.000000 0.000000 0.000000 0.000000 0.000000 0.000000 -0.000000 0.000000 0.000000 -0.000000 0.000000 0.000000 -0.000000 0.000000 0.000000 0.000000 -0.000000 0.000000 0.000001 -0.000000 0.000000 0.000001 -0.000000 0.000000 0.000001 
-3.241140 70.780869 3.829147 -87.088033 -88.094544 -83.752872 -0.000000 0.000000 0.000000 -23.030884 3.951731 -1.684505 25.452075 3.239603 -2.577148 -1.699173 0.142416 -2.138080 0.000000 0.000000 -0.000000 0.000004 -0.000000 -0.000000 1.449696 -6.642003 -4.361509 14.488619 6.327149 3.343563 -14.114078 5.403145 -3.833858 -0.000000 -0.000000 0.000000 0.000000 0.000000 -0.000000 9.210964 -1.816190 -3.464753 2.484826 -0.655869 -0.993600 2.498829 -0.650111 -0.953922 -10.243565 -0.124649 1.838432 -0.252908 7.422878 -1.217593 0.000000 0.000000 -0.000000 0.000000 0.000000 -0.000000 0.000000 0.000000 -0.000000 0.000000 0.000000 -0.000000 -0.000000 0.000000 -0.000000 0.000000 0.000000 -0.000000 -0.000000 0.000000 -0.000000 0.000000 0.000000 -0.000000 0.000000 0.000000 -0.000000 1.840587 -1.280264 -6.359063 17.055114 -5.752355 -73.319123 0.000002 -31.661940 -0.000014 -35.837337 2.998354 -0.340196 -3.779920 2.283109 7.466107 9.101074 20.660533 2.679457 -0.000001 0.000001 -0.000000 0.127497 3.220896 -8.431139 0.157298 1.349710 -13.292212 0.000002 0.000000 0.000002 0.287677 3.963701 -15.861029 0.385033 2.090668 -20.868854 0.000001 -0.000001 0.000002 0.538021 4.667910 -23.175793 0.699919 2.778770 -28.270513 -0.000001 0.000002 -0.000002 0.708786 5.030548 -27.099797 0.907885 3.134379 -32.300805 0.000000 0.000000 -0.000004 0.000001 0.000000 0.000000 0.870408 9.352944 14.094639 -2.581939 1.889410 67.635614 0.000001 23.372508 0.000014 -0.513755 -8.296870 -6.763856 -1.986184 -5.435671 -3.761593 8.766484 -20.697673 -3.062062 0.000001 -0.000001 0.000003 2.057129 -6.108272 55.293592 5.419329 -4.594511 99.429407 0.000000 -0.000000 0.000000 2.592844 -6.426550 62.973436 4.946635 -4.648203 93.567322 0.000001 0.000000 -0.000003 2.854994 -6.549322 66.538576 4.919153 -4.649840 93.228216 0.000000 0.000000 -0.000004 1.542120 -5.696819 47.168197 2.898943 -4.313213 67.797346 -0.000001 0.000002 -0.000001 -0.000000 0.000002 -0.000001 0.000001 0.000000 0.000000 0.000001 0.000000 -0.000000 0.000001 0.000000 0.000000 0.000001 0.000000 0.000000 0.000001 0.000000 0.000000 0.000001 0.000000 -0.000000 0.000001 0.000000 0.000000 0.000001 0.000000 0.000000 0.000001 0.000000 0.000000 0.000001 0.000000 -0.000000 -0.000000 0.000000 0.000000 -0.000000 0.000000 0.000000 -0.000000 0.000000 0.000000 
-6.325304 70.271118 4.558330 -45.389923 -91.790810 -43.097876 0.000000 0.000000 -0.000000 -24.802053 2.078844 -1.309442 9.542775 5.453572 -1.614802 -1.091437 2.309276 -1.352047 -0.000003 0.000000 0.000000 -0.000002 0.000000 -0.000000 1.215102 -6.895726 -4.507365 13.828354 6.471114 3.719897 -16.400029 7.331052 -2.819364 0.000000 -0.000000 0.000000 -0.000000 0.000001 -0.000000 6.759238 -0.541861 -3.047028 2.421248 -0.442107 -1.023751 2.438279 -0.435409 -0.978257 -10.520989 -0.005537 1.704047 -1.112401 10.097852 -1.385041 0.000000 -0.000001 0.000000 0.000000 -0.000001 0.000000 0.000000 -0.000001 0.000000 0.000000 -0.000001 0.000000 -0.000000 0.000000 0.000000 0.000000 -0.000001 0.000000 -0.000000 0.000000 0.000000 0.000000 -0.000001 0.000000 0.000000 -0.000001 0.000000 1.879435 -0.447626 -7.093172 20.426111 -3.514154 -75.275139 -0.000005 -28.308038 -0.000012 -40.108288 3.226666 -1.598699 -4.100945 0.955395 7.040271 8.537905 19.202110 2.467786 0.000001 0.000002 -0.000001 0.102529 3.031563 -6.566310 0.116386 1.163161 -11.427846 -0.000001 0.000000 0.000002 0.229141 3.741712 -13.617136 0.311156 1.885554 -18.738762 -0.000001 0.000001 -0.000001 0.416111 4.360295 -19.938417 0.559336 2.500030 -25.217957 0.000000 0.000000 -0.000001 0.550829 4.697528 -23.491594 0.733784 2.840749 -28.961191 -0.000001 0.000000 0.000001 0.000001 0.000000 -0.000000 0.918804 9.230619 13.250378 -2.488847 2.430836 67.369981 -0.000006 24.850738 -0.000005 -0.717233 -9.725321 -6.240112 -1.986184 -5.435671 -3.761593 8.766485 -20.697671 -3.062062 0.000001 -0.000001 0.000001 2.057130 -6.108272 55.293598 5.419328 -4.594510 99.429407 -0.000001 0.000001 -0.000001 2.592845 -6.426551 62.973429 4.946633 -4.648201 93.567328 -0.000000 0.000001 -0.000004 2.854991 -6.549321 66.538576 4.919148 -4.649838 93.228230 -0.000002 -0.000001 0.000004 1.542119 -5.696819 47.168197 2.898945 -4.313213 67.797346 -0.000001 0.000000 0.000002 -0.000000 0.000002 0.000000 0.000000 -0.000000 0.000000 0.000000 -0.000000 -0.000000 0.000000 -0.000000 0.000000 0.000000 -0.000000 0.000000 0.000000 -0.000000 0.000000 0.000000 -0.000000 -0.000000 0.000000 -0.000000 0.000000 0.000000 -0.000000 0.000000 0.000000 -0.000000 0.000000 0.000000 -0.000000 -0.000000 0.000000 0.000000 -0.000000 0.000000 0.000000 -0.000000 0.000000 0.000000 -0.000000 
